# 3ds Max Wavefront OBJ Exporter v0.97b - (c)2007 guruware
# File Created: 27.10.2016 00:00:44

mtllib light.mtl

#
# object Box001
#

v  17.6031 0.4635 19.1699
v  17.6031 0.4635 6.2788
v  29.6820 0.4579 5.8423
v  29.6820 0.4579 19.6064
v  29.6820 10.1719 19.6064
v  17.6031 10.4481 19.1699
v  29.6820 10.1719 5.8423
v  17.6031 10.4481 6.2788
v  27.2136 13.2386 17.9401
v  17.6101 13.3203 17.6092
v  27.2136 13.2386 7.5086
v  17.6101 13.3203 7.8395
v  39.3355 34.0571 24.9038
v  17.5760 34.0508 35.7193
v  39.3355 34.0571 0.5449
v  17.5760 34.0508 -10.2706
# 16 vertices

vn -0.0377 -0.7187 0.6943
vn -0.0377 -0.7187 -0.6943
vn 0.5629 -0.5748 -0.5940
vn 0.5629 -0.5748 0.5940
vn 0.6635 0.2811 0.6934
vn -0.0432 0.2530 0.9665
vn 0.6635 0.2811 -0.6934
vn -0.0432 0.2530 -0.9665
vn 0.6676 0.1294 0.7332
vn -0.0520 -0.1121 0.9923
vn 0.6676 0.1294 -0.7332
vn -0.0520 -0.1121 -0.9923
vn 0.7860 -0.4506 0.4233
vn 0.4853 -0.5749 0.6588
vn 0.7860 -0.4506 -0.4233
vn 0.4853 -0.5749 -0.6588
# 16 vertex normals

vt 1.0000 0.0000 0.0000
vt 1.0000 20.3890 0.0000
vt -22.0950 20.3890 0.0000
vt -22.0950 0.0000 0.0000
vt 0.0000 0.0000 0.0000
vt 23.0950 0.0000 0.0000
vt 23.0950 15.0678 0.0000
vt 0.0000 15.0678 0.0000
vt 20.3890 0.0000 0.0000
vt 20.3890 15.0678 0.0000
vt 23.0950 20.3890 0.0000
vt 0.0000 20.3890 0.0000
# 12 texture coords

o Box001
g Box001
usemtl wire_088144225
s 3
f 1/1/1 2/2/2 3/3/3 4/4/4 
s 9
f 1/5/1 4/6/4 5/7/5 6/8/6 
s 17
f 4/5/4 3/9/3 7/10/7 5/8/5 
s 33
f 3/5/3 2/6/2 8/7/8 7/8/7 
s 1
f 6/5/6 5/6/5 9/6/9 10/5/10 
f 5/6/5 7/11/7 11/11/11 9/6/9 
f 7/11/7 8/12/8 12/12/12 11/11/11 
s 2
f 10/5/10 9/6/9 13/6/13 14/5/14 
f 9/6/9 11/11/11 15/11/15 13/6/13 
f 11/11/11 12/12/12 16/12/16 15/11/15 
# 10 polygons

